{
	"patcher" : 	{
		"fileversion" : 1,
		"appversion" : 		{
			"major" : 8,
			"minor" : 1,
			"revision" : 10,
			"architecture" : "x64",
			"modernui" : 1
		}
,
		"classnamespace" : "box",
		"rect" : [ 235.0, 53.0, 1011.0, 702.0 ],
		"bglocked" : 0,
		"openinpresentation" : 0,
		"default_fontsize" : 12.0,
		"default_fontface" : 0,
		"default_fontname" : "Arial",
		"gridonopen" : 1,
		"gridsize" : [ 15.0, 15.0 ],
		"gridsnaponopen" : 1,
		"objectsnaponopen" : 1,
		"statusbarvisible" : 2,
		"toolbarvisible" : 1,
		"lefttoolbarpinned" : 0,
		"toptoolbarpinned" : 0,
		"righttoolbarpinned" : 0,
		"bottomtoolbarpinned" : 0,
		"toolbars_unpinned_last_save" : 0,
		"tallnewobj" : 0,
		"boxanimatetime" : 200,
		"enablehscroll" : 1,
		"enablevscroll" : 1,
		"devicewidth" : 0.0,
		"description" : "",
		"digest" : "",
		"tags" : "",
		"style" : "",
		"subpatcher_template" : "",
		"assistshowspatchername" : 0,
		"boxes" : [ 			{
				"box" : 				{
					"format" : 6,
					"id" : "obj-30",
					"maxclass" : "flonum",
					"numinlets" : 1,
					"numoutlets" : 2,
					"outlettype" : [ "", "bang" ],
					"parameter_enable" : 0,
					"patching_rect" : [ 822.0, 100.0, 50.0, 22.0 ]
				}

			}
, 			{
				"box" : 				{
					"id" : "obj-29",
					"maxclass" : "newobj",
					"numinlets" : 1,
					"numoutlets" : 0,
					"patching_rect" : [ 822.0, 146.0, 47.0, 22.0 ],
					"text" : "s cutoff"
				}

			}
, 			{
				"box" : 				{
					"format" : 6,
					"id" : "obj-26",
					"maxclass" : "flonum",
					"numinlets" : 1,
					"numoutlets" : 2,
					"outlettype" : [ "", "bang" ],
					"parameter_enable" : 0,
					"patching_rect" : [ 690.0, 105.0, 50.0, 22.0 ]
				}

			}
, 			{
				"box" : 				{
					"id" : "obj-16",
					"maxclass" : "newobj",
					"numinlets" : 1,
					"numoutlets" : 0,
					"patching_rect" : [ 690.0, 146.0, 76.0, 22.0 ],
					"text" : "s micro_shift"
				}

			}
, 			{
				"box" : 				{
					"id" : "obj-28",
					"maxclass" : "newobj",
					"numinlets" : 1,
					"numoutlets" : 1,
					"outlettype" : [ "" ],
					"patching_rect" : [ 172.0, 655.0, 83.0, 22.0 ],
					"text" : "loadmess 100"
				}

			}
, 			{
				"box" : 				{
					"id" : "obj-11",
					"maxclass" : "gain~",
					"multichannelvariant" : 0,
					"numinlets" : 1,
					"numoutlets" : 2,
					"outlettype" : [ "signal", "" ],
					"parameter_enable" : 0,
					"patching_rect" : [ 77.0, 622.0, 22.0, 49.0 ]
				}

			}
, 			{
				"box" : 				{
					"id" : "obj-9",
					"maxclass" : "gain~",
					"multichannelvariant" : 0,
					"numinlets" : 1,
					"numoutlets" : 2,
					"outlettype" : [ "signal", "" ],
					"parameter_enable" : 0,
					"patching_rect" : [ 57.0, 622.0, 22.0, 49.0 ]
				}

			}
, 			{
				"box" : 				{
					"id" : "obj-12",
					"maxclass" : "message",
					"numinlets" : 2,
					"numoutlets" : 1,
					"outlettype" : [ "" ],
					"patching_rect" : [ 172.0, 192.0, 45.0, 22.0 ],
					"text" : "open 1"
				}

			}
, 			{
				"box" : 				{
					"id" : "obj-53",
					"maxclass" : "newobj",
					"numinlets" : 1,
					"numoutlets" : 1,
					"outlettype" : [ "bang" ],
					"patching_rect" : [ 700.0, 256.0, 58.0, 22.0 ],
					"text" : "loadbang"
				}

			}
, 			{
				"box" : 				{
					"id" : "obj-52",
					"maxclass" : "message",
					"numinlets" : 2,
					"numoutlets" : 1,
					"outlettype" : [ "" ],
					"patching_rect" : [ 722.0, 313.0, 90.0, 22.0 ],
					"text" : "xyz 2 0.75 0. 0."
				}

			}
, 			{
				"box" : 				{
					"id" : "obj-51",
					"maxclass" : "message",
					"numinlets" : 2,
					"numoutlets" : 1,
					"outlettype" : [ "" ],
					"patching_rect" : [ 700.0, 286.0, 94.0, 22.0 ],
					"text" : "xyz 1 -0.75 0. 0."
				}

			}
, 			{
				"box" : 				{
					"border_color" : [ 0.32549, 0.32549, 0.32549, 1.0 ],
					"circle_color" : [ 0.0, 0.0, 0.0, 0.05098 ],
					"coord_color" : [ 0.584314, 0.584314, 0.584314, 1.0 ],
					"grid" : 1,
					"grid_color" : [ 0.0, 0.0, 0.0, 0.05098 ],
					"gridunit_ae" : 8,
					"hi_border_color" : [ 0.776471, 0.635294, 0.776471, 1.0 ],
					"hi_grid_color" : [ 0.0, 0.0, 0.0, 0.101961 ],
					"id" : "obj-114",
					"line_color" : [ 1.0, 0.47451, 0.0, 1.0 ],
					"maxclass" : "ambimonitor",
					"name_color" : [ 0.360784, 0.341176, 0.321569, 1.0 ],
					"number_font_size" : 9.0,
					"numbers" : 1,
					"numinlets" : 1,
					"numoutlets" : 3,
					"outlettype" : [ "", "", "" ],
					"patching_rect" : [ 516.0, 247.0, 150.0, 150.0 ],
					"point_color" : [ 0.360784, 0.341176, 0.321569, 1.0 ],
					"point_color1" : [ 0.74902, 0.0, 0.0, 1.0 ],
					"point_color2" : [ 0.0, 0.74902, 0.0, 1.0 ],
					"point_color3" : [ 0.701961, 0.0, 1.0, 1.0 ],
					"point_color4" : [ 0.74902, 0.380392, 0.0, 1.0 ],
					"point_size" : 5.0,
					"prototypename" : "small_light_grey"
				}

			}
, 			{
				"box" : 				{
					"id" : "obj-25",
					"maxclass" : "newobj",
					"numinlets" : 16,
					"numoutlets" : 2,
					"outlettype" : [ "signal", "signal" ],
					"patching_rect" : [ 29.5, 585.0, 345.0, 22.0 ],
					"saved_object_attributes" : 					{
						"active" : [ 1, 1 ],
						"aed_scale" : 10.0,
						"coord_angles" : 0,
						"coord_system" : 0,
						"gain" : 1.0,
						"order" : 3,
						"orderweight" : [ 1.0, 0.6, 0.2, 0.028571428571429 ],
						"type" : 1,
						"xyz_scale" : 10.0
					}
,
					"text" : "ambidecode~ 3 2"
				}

			}
, 			{
				"box" : 				{
					"id" : "obj-22",
					"maxclass" : "newobj",
					"numinlets" : 1,
					"numoutlets" : 64,
					"outlettype" : [ "signal", "signal", "signal", "signal", "signal", "signal", "signal", "signal", "signal", "signal", "signal", "signal", "signal", "signal", "signal", "signal", "signal", "signal", "signal", "signal", "signal", "signal", "signal", "signal", "signal", "signal", "signal", "signal", "signal", "signal", "signal", "signal", "signal", "signal", "signal", "signal", "signal", "signal", "signal", "signal", "signal", "signal", "signal", "signal", "signal", "signal", "signal", "signal", "signal", "signal", "signal", "signal", "signal", "signal", "signal", "signal", "signal", "signal", "signal", "signal", "signal", "signal", "signal", "signal" ],
					"patching_rect" : [ 30.0, 463.0, 680.5, 22.0 ],
					"text" : "mc.unpack~ 64"
				}

			}
, 			{
				"box" : 				{
					"id" : "obj-21",
					"maxclass" : "newobj",
					"numinlets" : 64,
					"numoutlets" : 16,
					"outlettype" : [ "signal", "signal", "signal", "signal", "signal", "signal", "signal", "signal", "signal", "signal", "signal", "signal", "signal", "signal", "signal", "signal" ],
					"patching_rect" : [ 30.0, 496.0, 680.5, 22.0 ],
					"saved_object_attributes" : 					{
						"active" : [ 1, 1, 1, 1, 1, 1, 1, 1, 1, 1, 1, 1, 1, 1, 1, 1, 1, 1, 1, 1, 1, 1, 1, 1, 1, 1, 1, 1, 1, 1, 1, 1, 1, 1, 1, 1, 1, 1, 1, 1, 1, 1, 1, 1, 1, 1, 1, 1, 1, 1, 1, 1, 1, 1, 1, 1, 1, 1, 1, 1, 1, 1, 1, 1 ],
						"aed_scale" : 10.0,
						"center_att_db" : 6.0,
						"center_curve" : 0.2,
						"center_size" : 1.0,
						"coord_angles" : 0,
						"coord_system" : 0,
						"db_unit" : 1.5,
						"dist_att" : 1.0,
						"distance_mode" : 1,
						"gain" : 1.0,
						"interpolation" : 1,
						"order" : 3,
						"type" : 1,
						"xyz_scale" : 10.0
					}
,
					"text" : "ambiencode~ 3 64"
				}

			}
, 			{
				"box" : 				{
					"circle_color" : [ 0.925490196078431, 0.92156862745098, 0.92156862745098, 1.0 ],
					"grid" : 2,
					"grid_color" : [ 0.890196078431372, 0.890196078431372, 0.890196078431372, 1.0 ],
					"hi_grid_color" : [ 0.831372549019608, 0.831372549019608, 0.831372549019608, 1.0 ],
					"id" : "obj-18",
					"maxclass" : "ambimonitor",
					"numinlets" : 1,
					"numoutlets" : 3,
					"offset" : 1,
					"outlettype" : [ "", "", "" ],
					"patching_rect" : [ 300.0, 230.0, 200.0, 200.0 ],
					"point_size" : 4.0
				}

			}
, 			{
				"box" : 				{
					"id" : "obj-13",
					"maxclass" : "message",
					"numinlets" : 2,
					"numoutlets" : 1,
					"outlettype" : [ "" ],
					"patching_rect" : [ 300.0, 150.0, 93.0, 22.0 ],
					"text" : "xyz $1 $5 $6 $7"
				}

			}
, 			{
				"box" : 				{
					"id" : "obj-20",
					"maxclass" : "meter~",
					"numinlets" : 1,
					"numoutlets" : 1,
					"orientation" : 2,
					"outlettype" : [ "float" ],
					"patching_rect" : [ 75.0, 255.0, 202.0, 150.0 ]
				}

			}
, 			{
				"box" : 				{
					"id" : "obj-10",
					"maxclass" : "ezdac~",
					"numinlets" : 2,
					"numoutlets" : 0,
					"patching_rect" : [ 57.0, 673.0, 45.0, 45.0 ]
				}

			}
, 			{
				"box" : 				{
					"id" : "obj-17",
					"maxclass" : "message",
					"numinlets" : 2,
					"numoutlets" : 1,
					"outlettype" : [ "" ],
					"patching_rect" : [ 30.0, 148.0, 109.0, 22.0 ],
					"text" : "target $1, $2 $3 $4"
				}

			}
, 			{
				"box" : 				{
					"id" : "obj-8",
					"maxclass" : "newobj",
					"numinlets" : 1,
					"numoutlets" : 1,
					"outlettype" : [ "multichannelsignal" ],
					"patching_rect" : [ 30.0, 195.0, 99.0, 22.0 ],
					"text" : "mc.poly~ limb 64"
				}

			}
, 			{
				"box" : 				{
					"id" : "obj-27",
					"maxclass" : "button",
					"numinlets" : 1,
					"numoutlets" : 1,
					"outlettype" : [ "bang" ],
					"parameter_enable" : 0,
					"patching_rect" : [ 103.0, 83.0, 24.0, 24.0 ]
				}

			}
, 			{
				"box" : 				{
					"id" : "obj-24",
					"maxclass" : "newobj",
					"numinlets" : 2,
					"numoutlets" : 1,
					"outlettype" : [ "bang" ],
					"patching_rect" : [ 417.0, 45.0, 48.0, 22.0 ],
					"text" : "del 500"
				}

			}
, 			{
				"box" : 				{
					"id" : "obj-6",
					"maxclass" : "newobj",
					"numinlets" : 1,
					"numoutlets" : 1,
					"outlettype" : [ "bang" ],
					"patching_rect" : [ 357.0, 45.0, 58.0, 22.0 ],
					"text" : "loadbang"
				}

			}
, 			{
				"box" : 				{
					"id" : "obj-23",
					"maxclass" : "newobj",
					"numinlets" : 1,
					"numoutlets" : 0,
					"patching_rect" : [ 468.0, 146.0, 37.0, 22.0 ],
					"text" : "s info"
				}

			}
, 			{
				"box" : 				{
					"id" : "obj-19",
					"maxclass" : "newobj",
					"numinlets" : 1,
					"numoutlets" : 9,
					"outlettype" : [ "float", "list", "float", "float", "float", "float", "float", "", "int" ],
					"patching_rect" : [ 405.0, 110.0, 103.0, 22.0 ],
					"text" : "info~ phrase"
				}

			}
, 			{
				"box" : 				{
					"id" : "obj-15",
					"maxclass" : "button",
					"numinlets" : 1,
					"numoutlets" : 1,
					"outlettype" : [ "bang" ],
					"parameter_enable" : 0,
					"patching_rect" : [ 511.0, 45.0, 45.0, 45.0 ]
				}

			}
, 			{
				"box" : 				{
					"id" : "obj-14",
					"maxclass" : "newobj",
					"numinlets" : 1,
					"numoutlets" : 0,
					"patching_rect" : [ 511.0, 146.0, 45.0, 22.0 ],
					"text" : "s reset"
				}

			}
, 			{
				"box" : 				{
					"id" : "obj-4",
					"maxclass" : "meter~",
					"numinlets" : 1,
					"numoutlets" : 1,
					"outlettype" : [ "float" ],
					"patching_rect" : [ 134.0, 622.0, 12.0, 58.0 ]
				}

			}
, 			{
				"box" : 				{
					"id" : "obj-2",
					"maxclass" : "meter~",
					"numinlets" : 1,
					"numoutlets" : 1,
					"outlettype" : [ "float" ],
					"patching_rect" : [ 116.0, 622.0, 12.0, 58.0 ]
				}

			}
, 			{
				"box" : 				{
					"id" : "obj-7",
					"maxclass" : "message",
					"numinlets" : 2,
					"numoutlets" : 1,
					"outlettype" : [ "" ],
					"patching_rect" : [ 300.0, 45.0, 48.0, 22.0 ],
					"text" : "replace"
				}

			}
, 			{
				"box" : 				{
					"id" : "obj-5",
					"maxclass" : "newobj",
					"numinlets" : 1,
					"numoutlets" : 2,
					"outlettype" : [ "float", "bang" ],
					"patching_rect" : [ 300.0, 83.0, 178.0, 22.0 ],
					"text" : "buffer~ phrase phrase_4.wav -1"
				}

			}
, 			{
				"box" : 				{
					"id" : "obj-3",
					"maxclass" : "newobj",
					"numinlets" : 2,
					"numoutlets" : 2,
					"outlettype" : [ "", "" ],
					"patching_rect" : [ 30.0, 83.0, 65.0, 22.0 ],
					"text" : "route limb/"
				}

			}
, 			{
				"box" : 				{
					"id" : "obj-1",
					"maxclass" : "newobj",
					"numinlets" : 1,
					"numoutlets" : 1,
					"outlettype" : [ "" ],
					"patching_rect" : [ 30.0, 45.0, 97.0, 22.0 ],
					"text" : "udpreceive 5005"
				}

			}
 ],
		"lines" : [ 			{
				"patchline" : 				{
					"destination" : [ "obj-27", 0 ],
					"order" : 0,
					"source" : [ "obj-1", 0 ]
				}

			}
, 			{
				"patchline" : 				{
					"destination" : [ "obj-3", 0 ],
					"order" : 1,
					"source" : [ "obj-1", 0 ]
				}

			}
, 			{
				"patchline" : 				{
					"destination" : [ "obj-10", 1 ],
					"source" : [ "obj-11", 0 ]
				}

			}
, 			{
				"patchline" : 				{
					"destination" : [ "obj-25", 0 ],
					"source" : [ "obj-114", 0 ]
				}

			}
, 			{
				"patchline" : 				{
					"destination" : [ "obj-8", 0 ],
					"source" : [ "obj-12", 0 ]
				}

			}
, 			{
				"patchline" : 				{
					"destination" : [ "obj-18", 0 ],
					"source" : [ "obj-13", 0 ]
				}

			}
, 			{
				"patchline" : 				{
					"destination" : [ "obj-14", 0 ],
					"order" : 0,
					"source" : [ "obj-15", 0 ]
				}

			}
, 			{
				"patchline" : 				{
					"destination" : [ "obj-19", 0 ],
					"order" : 1,
					"source" : [ "obj-15", 0 ]
				}

			}
, 			{
				"patchline" : 				{
					"destination" : [ "obj-8", 0 ],
					"source" : [ "obj-17", 0 ]
				}

			}
, 			{
				"patchline" : 				{
					"destination" : [ "obj-21", 0 ],
					"source" : [ "obj-18", 0 ]
				}

			}
, 			{
				"patchline" : 				{
					"destination" : [ "obj-23", 0 ],
					"source" : [ "obj-19", 6 ]
				}

			}
, 			{
				"patchline" : 				{
					"destination" : [ "obj-25", 15 ],
					"source" : [ "obj-21", 15 ]
				}

			}
, 			{
				"patchline" : 				{
					"destination" : [ "obj-25", 14 ],
					"source" : [ "obj-21", 14 ]
				}

			}
, 			{
				"patchline" : 				{
					"destination" : [ "obj-25", 13 ],
					"source" : [ "obj-21", 13 ]
				}

			}
, 			{
				"patchline" : 				{
					"destination" : [ "obj-25", 12 ],
					"source" : [ "obj-21", 12 ]
				}

			}
, 			{
				"patchline" : 				{
					"destination" : [ "obj-25", 11 ],
					"source" : [ "obj-21", 11 ]
				}

			}
, 			{
				"patchline" : 				{
					"destination" : [ "obj-25", 10 ],
					"source" : [ "obj-21", 10 ]
				}

			}
, 			{
				"patchline" : 				{
					"destination" : [ "obj-25", 9 ],
					"source" : [ "obj-21", 9 ]
				}

			}
, 			{
				"patchline" : 				{
					"destination" : [ "obj-25", 8 ],
					"source" : [ "obj-21", 8 ]
				}

			}
, 			{
				"patchline" : 				{
					"destination" : [ "obj-25", 7 ],
					"source" : [ "obj-21", 7 ]
				}

			}
, 			{
				"patchline" : 				{
					"destination" : [ "obj-25", 6 ],
					"source" : [ "obj-21", 6 ]
				}

			}
, 			{
				"patchline" : 				{
					"destination" : [ "obj-25", 5 ],
					"source" : [ "obj-21", 5 ]
				}

			}
, 			{
				"patchline" : 				{
					"destination" : [ "obj-25", 4 ],
					"source" : [ "obj-21", 4 ]
				}

			}
, 			{
				"patchline" : 				{
					"destination" : [ "obj-25", 3 ],
					"source" : [ "obj-21", 3 ]
				}

			}
, 			{
				"patchline" : 				{
					"destination" : [ "obj-25", 2 ],
					"source" : [ "obj-21", 2 ]
				}

			}
, 			{
				"patchline" : 				{
					"destination" : [ "obj-25", 1 ],
					"source" : [ "obj-21", 1 ]
				}

			}
, 			{
				"patchline" : 				{
					"destination" : [ "obj-25", 0 ],
					"source" : [ "obj-21", 0 ]
				}

			}
, 			{
				"patchline" : 				{
					"destination" : [ "obj-21", 63 ],
					"source" : [ "obj-22", 63 ]
				}

			}
, 			{
				"patchline" : 				{
					"destination" : [ "obj-21", 62 ],
					"source" : [ "obj-22", 62 ]
				}

			}
, 			{
				"patchline" : 				{
					"destination" : [ "obj-21", 61 ],
					"source" : [ "obj-22", 61 ]
				}

			}
, 			{
				"patchline" : 				{
					"destination" : [ "obj-21", 60 ],
					"source" : [ "obj-22", 60 ]
				}

			}
, 			{
				"patchline" : 				{
					"destination" : [ "obj-21", 59 ],
					"source" : [ "obj-22", 59 ]
				}

			}
, 			{
				"patchline" : 				{
					"destination" : [ "obj-21", 58 ],
					"source" : [ "obj-22", 58 ]
				}

			}
, 			{
				"patchline" : 				{
					"destination" : [ "obj-21", 57 ],
					"source" : [ "obj-22", 57 ]
				}

			}
, 			{
				"patchline" : 				{
					"destination" : [ "obj-21", 56 ],
					"source" : [ "obj-22", 56 ]
				}

			}
, 			{
				"patchline" : 				{
					"destination" : [ "obj-21", 55 ],
					"source" : [ "obj-22", 55 ]
				}

			}
, 			{
				"patchline" : 				{
					"destination" : [ "obj-21", 54 ],
					"source" : [ "obj-22", 54 ]
				}

			}
, 			{
				"patchline" : 				{
					"destination" : [ "obj-21", 53 ],
					"source" : [ "obj-22", 53 ]
				}

			}
, 			{
				"patchline" : 				{
					"destination" : [ "obj-21", 52 ],
					"source" : [ "obj-22", 52 ]
				}

			}
, 			{
				"patchline" : 				{
					"destination" : [ "obj-21", 51 ],
					"source" : [ "obj-22", 51 ]
				}

			}
, 			{
				"patchline" : 				{
					"destination" : [ "obj-21", 50 ],
					"source" : [ "obj-22", 50 ]
				}

			}
, 			{
				"patchline" : 				{
					"destination" : [ "obj-21", 49 ],
					"source" : [ "obj-22", 49 ]
				}

			}
, 			{
				"patchline" : 				{
					"destination" : [ "obj-21", 48 ],
					"source" : [ "obj-22", 48 ]
				}

			}
, 			{
				"patchline" : 				{
					"destination" : [ "obj-21", 47 ],
					"source" : [ "obj-22", 47 ]
				}

			}
, 			{
				"patchline" : 				{
					"destination" : [ "obj-21", 46 ],
					"source" : [ "obj-22", 46 ]
				}

			}
, 			{
				"patchline" : 				{
					"destination" : [ "obj-21", 45 ],
					"source" : [ "obj-22", 45 ]
				}

			}
, 			{
				"patchline" : 				{
					"destination" : [ "obj-21", 44 ],
					"source" : [ "obj-22", 44 ]
				}

			}
, 			{
				"patchline" : 				{
					"destination" : [ "obj-21", 43 ],
					"source" : [ "obj-22", 43 ]
				}

			}
, 			{
				"patchline" : 				{
					"destination" : [ "obj-21", 42 ],
					"source" : [ "obj-22", 42 ]
				}

			}
, 			{
				"patchline" : 				{
					"destination" : [ "obj-21", 41 ],
					"source" : [ "obj-22", 41 ]
				}

			}
, 			{
				"patchline" : 				{
					"destination" : [ "obj-21", 40 ],
					"source" : [ "obj-22", 40 ]
				}

			}
, 			{
				"patchline" : 				{
					"destination" : [ "obj-21", 39 ],
					"source" : [ "obj-22", 39 ]
				}

			}
, 			{
				"patchline" : 				{
					"destination" : [ "obj-21", 38 ],
					"source" : [ "obj-22", 38 ]
				}

			}
, 			{
				"patchline" : 				{
					"destination" : [ "obj-21", 37 ],
					"source" : [ "obj-22", 37 ]
				}

			}
, 			{
				"patchline" : 				{
					"destination" : [ "obj-21", 36 ],
					"source" : [ "obj-22", 36 ]
				}

			}
, 			{
				"patchline" : 				{
					"destination" : [ "obj-21", 35 ],
					"source" : [ "obj-22", 35 ]
				}

			}
, 			{
				"patchline" : 				{
					"destination" : [ "obj-21", 34 ],
					"source" : [ "obj-22", 34 ]
				}

			}
, 			{
				"patchline" : 				{
					"destination" : [ "obj-21", 33 ],
					"source" : [ "obj-22", 33 ]
				}

			}
, 			{
				"patchline" : 				{
					"destination" : [ "obj-21", 32 ],
					"source" : [ "obj-22", 32 ]
				}

			}
, 			{
				"patchline" : 				{
					"destination" : [ "obj-21", 31 ],
					"source" : [ "obj-22", 31 ]
				}

			}
, 			{
				"patchline" : 				{
					"destination" : [ "obj-21", 30 ],
					"source" : [ "obj-22", 30 ]
				}

			}
, 			{
				"patchline" : 				{
					"destination" : [ "obj-21", 29 ],
					"source" : [ "obj-22", 29 ]
				}

			}
, 			{
				"patchline" : 				{
					"destination" : [ "obj-21", 28 ],
					"source" : [ "obj-22", 28 ]
				}

			}
, 			{
				"patchline" : 				{
					"destination" : [ "obj-21", 27 ],
					"source" : [ "obj-22", 27 ]
				}

			}
, 			{
				"patchline" : 				{
					"destination" : [ "obj-21", 26 ],
					"source" : [ "obj-22", 26 ]
				}

			}
, 			{
				"patchline" : 				{
					"destination" : [ "obj-21", 25 ],
					"source" : [ "obj-22", 25 ]
				}

			}
, 			{
				"patchline" : 				{
					"destination" : [ "obj-21", 24 ],
					"source" : [ "obj-22", 24 ]
				}

			}
, 			{
				"patchline" : 				{
					"destination" : [ "obj-21", 23 ],
					"source" : [ "obj-22", 23 ]
				}

			}
, 			{
				"patchline" : 				{
					"destination" : [ "obj-21", 22 ],
					"source" : [ "obj-22", 22 ]
				}

			}
, 			{
				"patchline" : 				{
					"destination" : [ "obj-21", 21 ],
					"source" : [ "obj-22", 21 ]
				}

			}
, 			{
				"patchline" : 				{
					"destination" : [ "obj-21", 20 ],
					"source" : [ "obj-22", 20 ]
				}

			}
, 			{
				"patchline" : 				{
					"destination" : [ "obj-21", 19 ],
					"source" : [ "obj-22", 19 ]
				}

			}
, 			{
				"patchline" : 				{
					"destination" : [ "obj-21", 18 ],
					"source" : [ "obj-22", 18 ]
				}

			}
, 			{
				"patchline" : 				{
					"destination" : [ "obj-21", 17 ],
					"source" : [ "obj-22", 17 ]
				}

			}
, 			{
				"patchline" : 				{
					"destination" : [ "obj-21", 16 ],
					"source" : [ "obj-22", 16 ]
				}

			}
, 			{
				"patchline" : 				{
					"destination" : [ "obj-21", 15 ],
					"source" : [ "obj-22", 15 ]
				}

			}
, 			{
				"patchline" : 				{
					"destination" : [ "obj-21", 14 ],
					"source" : [ "obj-22", 14 ]
				}

			}
, 			{
				"patchline" : 				{
					"destination" : [ "obj-21", 13 ],
					"source" : [ "obj-22", 13 ]
				}

			}
, 			{
				"patchline" : 				{
					"destination" : [ "obj-21", 12 ],
					"source" : [ "obj-22", 12 ]
				}

			}
, 			{
				"patchline" : 				{
					"destination" : [ "obj-21", 11 ],
					"source" : [ "obj-22", 11 ]
				}

			}
, 			{
				"patchline" : 				{
					"destination" : [ "obj-21", 10 ],
					"source" : [ "obj-22", 10 ]
				}

			}
, 			{
				"patchline" : 				{
					"destination" : [ "obj-21", 9 ],
					"source" : [ "obj-22", 9 ]
				}

			}
, 			{
				"patchline" : 				{
					"destination" : [ "obj-21", 8 ],
					"source" : [ "obj-22", 8 ]
				}

			}
, 			{
				"patchline" : 				{
					"destination" : [ "obj-21", 7 ],
					"source" : [ "obj-22", 7 ]
				}

			}
, 			{
				"patchline" : 				{
					"destination" : [ "obj-21", 6 ],
					"source" : [ "obj-22", 6 ]
				}

			}
, 			{
				"patchline" : 				{
					"destination" : [ "obj-21", 5 ],
					"source" : [ "obj-22", 5 ]
				}

			}
, 			{
				"patchline" : 				{
					"destination" : [ "obj-21", 4 ],
					"source" : [ "obj-22", 4 ]
				}

			}
, 			{
				"patchline" : 				{
					"destination" : [ "obj-21", 3 ],
					"source" : [ "obj-22", 3 ]
				}

			}
, 			{
				"patchline" : 				{
					"destination" : [ "obj-21", 2 ],
					"source" : [ "obj-22", 2 ]
				}

			}
, 			{
				"patchline" : 				{
					"destination" : [ "obj-21", 1 ],
					"source" : [ "obj-22", 1 ]
				}

			}
, 			{
				"patchline" : 				{
					"destination" : [ "obj-21", 0 ],
					"source" : [ "obj-22", 0 ]
				}

			}
, 			{
				"patchline" : 				{
					"destination" : [ "obj-15", 0 ],
					"source" : [ "obj-24", 0 ]
				}

			}
, 			{
				"patchline" : 				{
					"destination" : [ "obj-11", 0 ],
					"order" : 1,
					"source" : [ "obj-25", 1 ]
				}

			}
, 			{
				"patchline" : 				{
					"destination" : [ "obj-2", 0 ],
					"order" : 0,
					"source" : [ "obj-25", 0 ]
				}

			}
, 			{
				"patchline" : 				{
					"destination" : [ "obj-4", 0 ],
					"order" : 0,
					"source" : [ "obj-25", 1 ]
				}

			}
, 			{
				"patchline" : 				{
					"destination" : [ "obj-9", 0 ],
					"order" : 1,
					"source" : [ "obj-25", 0 ]
				}

			}
, 			{
				"patchline" : 				{
					"destination" : [ "obj-16", 0 ],
					"source" : [ "obj-26", 0 ]
				}

			}
, 			{
				"patchline" : 				{
					"destination" : [ "obj-9", 0 ],
					"source" : [ "obj-28", 0 ]
				}

			}
, 			{
				"patchline" : 				{
					"destination" : [ "obj-13", 0 ],
					"order" : 0,
					"source" : [ "obj-3", 0 ]
				}

			}
, 			{
				"patchline" : 				{
					"destination" : [ "obj-17", 0 ],
					"order" : 1,
					"source" : [ "obj-3", 0 ]
				}

			}
, 			{
				"patchline" : 				{
					"destination" : [ "obj-29", 0 ],
					"source" : [ "obj-30", 0 ]
				}

			}
, 			{
				"patchline" : 				{
					"destination" : [ "obj-15", 0 ],
					"source" : [ "obj-5", 1 ]
				}

			}
, 			{
				"patchline" : 				{
					"destination" : [ "obj-114", 0 ],
					"source" : [ "obj-51", 0 ]
				}

			}
, 			{
				"patchline" : 				{
					"destination" : [ "obj-114", 0 ],
					"source" : [ "obj-52", 0 ]
				}

			}
, 			{
				"patchline" : 				{
					"destination" : [ "obj-51", 0 ],
					"order" : 1,
					"source" : [ "obj-53", 0 ]
				}

			}
, 			{
				"patchline" : 				{
					"destination" : [ "obj-52", 0 ],
					"order" : 0,
					"source" : [ "obj-53", 0 ]
				}

			}
, 			{
				"patchline" : 				{
					"destination" : [ "obj-24", 0 ],
					"source" : [ "obj-6", 0 ]
				}

			}
, 			{
				"patchline" : 				{
					"destination" : [ "obj-5", 0 ],
					"source" : [ "obj-7", 0 ]
				}

			}
, 			{
				"patchline" : 				{
					"destination" : [ "obj-20", 0 ],
					"order" : 0,
					"source" : [ "obj-8", 0 ]
				}

			}
, 			{
				"patchline" : 				{
					"destination" : [ "obj-22", 0 ],
					"order" : 1,
					"source" : [ "obj-8", 0 ]
				}

			}
, 			{
				"patchline" : 				{
					"destination" : [ "obj-10", 0 ],
					"source" : [ "obj-9", 0 ]
				}

			}
, 			{
				"patchline" : 				{
					"destination" : [ "obj-11", 0 ],
					"source" : [ "obj-9", 1 ]
				}

			}
 ],
		"dependency_cache" : [ 			{
				"name" : "limb.maxpat",
				"bootpath" : "~/Studio/terminal_morraine/code/tree_max",
				"patcherrelativepath" : ".",
				"type" : "JSON",
				"implicit" : 1
			}
, 			{
				"name" : "ambimonitor.mxo",
				"type" : "iLaX"
			}
, 			{
				"name" : "ambiencode~.mxo",
				"type" : "iLaX"
			}
, 			{
				"name" : "ambidecode~.mxo",
				"type" : "iLaX"
			}
 ],
		"autosave" : 0
	}

}
